G04 ================== begin FILE IDENTIFICATION RECORD ==================*
G04 Layout Name:  C:/Users/user/Desktop/EXEX/allegro/BVNCB.brd*
G04 Film Name:    DrillDraw*
G04 File Format:  Gerber RS274X*
G04 File Origin:  Cadence Allegro 17.2-S038*
G04 Origin Date:  Thu Jul 11 11:34:42 2019*
G04 *
G04 Layer:  MANUFACTURING/NCLEGEND-1-2*
G04 Layer:  BOARD GEOMETRY/DESIGN_OUTLINE*
G04 *
G04 Offset:    (0.000 0.000)*
G04 Mirror:    No*
G04 Mode:      Positive*
G04 Rotation:  0*
G04 FullContactRelief:  No*
G04 UndefLineWidth:     0.100*
G04 ================== end FILE IDENTIFICATION RECORD ====================*
%FSLAX25Y25*MOIN*%
%IR0*IPPOS*OFA0.00000B0.00000*MIA0B0*SFA1.00000B1.00000*%
%AMMACRO11*
1,1,.003937,-.02,.0125*
20,1,.003937,-.02,.0125,-.019696,.015973,0.0*
1,1,.003937,-.019696,.015973*
20,1,.003937,-.019696,.015973,-.018794,.01934,0.0*
1,1,.003937,-.018794,.01934*
20,1,.003937,-.018794,.01934,-.017321,.0225,0.0*
1,1,.003937,-.017321,.0225*
20,1,.003937,-.017321,.0225,-.015321,.025356,0.0*
1,1,.003937,-.015321,.025356*
20,1,.003937,-.015321,.025356,-.012856,.027821,0.0*
1,1,.003937,-.012856,.027821*
20,1,.003937,-.012856,.027821,-.01,.029821,0.0*
1,1,.003937,-.01,.029821*
20,1,.003937,-.01,.029821,-.00684,.031294,0.0*
1,1,.003937,-.00684,.031294*
20,1,.003937,-.00684,.031294,-.003473,.032196,0.0*
1,1,.003937,-.003473,.032196*
20,1,.003937,-.003473,.032196,0.0,.0325,0.0*
1,1,.003937,0.0,.0325*
20,1,.003937,0.0,.0325,.003473,.032196,0.0*
1,1,.003937,.003473,.032196*
20,1,.003937,.003473,.032196,.00684,.031294,0.0*
1,1,.003937,.00684,.031294*
20,1,.003937,.00684,.031294,.01,.029821,0.0*
1,1,.003937,.01,.029821*
20,1,.003937,.01,.029821,.012856,.027821,0.0*
1,1,.003937,.012856,.027821*
20,1,.003937,.012856,.027821,.015321,.025356,0.0*
1,1,.003937,.015321,.025356*
20,1,.003937,.015321,.025356,.017321,.0225,0.0*
1,1,.003937,.017321,.0225*
20,1,.003937,.017321,.0225,.018794,.01934,0.0*
1,1,.003937,.018794,.01934*
20,1,.003937,.018794,.01934,.019696,.015973,0.0*
1,1,.003937,.019696,.015973*
20,1,.003937,.019696,.015973,.02,.0125,0.0*
1,1,.003937,.02,.0125*
20,1,.003937,.02,.0125,.02,-.0125,0.0*
1,1,.003937,.02,-.0125*
20,1,.003937,.02,-.0125,.019696,-.015973,0.0*
1,1,.003937,.019696,-.015973*
20,1,.003937,.019696,-.015973,.018794,-.01934,0.0*
1,1,.003937,.018794,-.01934*
20,1,.003937,.018794,-.01934,.017321,-.0225,0.0*
1,1,.003937,.017321,-.0225*
20,1,.003937,.017321,-.0225,.015321,-.025356,0.0*
1,1,.003937,.015321,-.025356*
20,1,.003937,.015321,-.025356,.012856,-.027821,0.0*
1,1,.003937,.012856,-.027821*
20,1,.003937,.012856,-.027821,.01,-.029821,0.0*
1,1,.003937,.01,-.029821*
20,1,.003937,.01,-.029821,.00684,-.031294,0.0*
1,1,.003937,.00684,-.031294*
20,1,.003937,.00684,-.031294,.003473,-.032196,0.0*
1,1,.003937,.003473,-.032196*
20,1,.003937,.003473,-.032196,0.0,-.0325,0.0*
1,1,.003937,0.0,-.0325*
20,1,.003937,0.0,-.0325,-.003473,-.032196,0.0*
1,1,.003937,-.003473,-.032196*
20,1,.003937,-.003473,-.032196,-.00684,-.031294,0.0*
1,1,.003937,-.00684,-.031294*
20,1,.003937,-.00684,-.031294,-.01,-.029821,0.0*
1,1,.003937,-.01,-.029821*
20,1,.003937,-.01,-.029821,-.012856,-.027821,0.0*
1,1,.003937,-.012856,-.027821*
20,1,.003937,-.012856,-.027821,-.015321,-.025356,0.0*
1,1,.003937,-.015321,-.025356*
20,1,.003937,-.015321,-.025356,-.017321,-.0225,0.0*
1,1,.003937,-.017321,-.0225*
20,1,.003937,-.017321,-.0225,-.018794,-.01934,0.0*
1,1,.003937,-.018794,-.01934*
20,1,.003937,-.018794,-.01934,-.019696,-.015973,0.0*
1,1,.003937,-.019696,-.015973*
20,1,.003937,-.019696,-.015973,-.02,-.0125,0.0*
1,1,.003937,-.02,-.0125*
20,1,.003937,-.02,-.0125,-.02,.0125,0.0*
1,1,.003937,-.02,.0125*
%
%ADD11MACRO11*%
%AMMACRO12*
1,1,.003937,.025,0.0*
20,1,.003937,.025,0.0,.0125,.021651,0.0*
1,1,.003937,.0125,.021651*
20,1,.003937,.0125,.021651,-.0125,.021651,0.0*
1,1,.003937,-.0125,.021651*
20,1,.003937,-.0125,.021651,-.025,0.0,0.0*
1,1,.003937,-.025,0.0*
20,1,.003937,-.025,0.0,-.0125,-.021651,0.0*
1,1,.003937,-.0125,-.021651*
20,1,.003937,-.0125,-.021651,.0125,-.021651,0.0*
1,1,.003937,.0125,-.021651*
20,1,.003937,.0125,-.021651,.025,0.0,0.0*
1,1,.003937,.025,0.0*
%
%ADD12MACRO12*%
%AMMACRO10*
1,1,.003937,-.02622,-.03748*
20,1,.003937,-.02622,-.03748,.02626,.03752,0.0*
1,1,.003937,.02626,.03752*
1,1,.003937,-.02622,.03752*
20,1,.003937,-.02622,.03752,.02626,-.03748,0.0*
1,1,.003937,.02626,-.03748*
%
%ADD10MACRO10*%
%ADD13C,.003937*%
G75*
%LPD*%
G75*
G54D10*
X22500Y22500D03*
Y175000D03*
X252500Y22500D03*
Y175000D03*
X329941Y11909D03*
G54D11*
X60000Y80000D03*
Y120000D03*
X200000Y80000D03*
Y120000D03*
X329941Y36909D03*
G54D12*
X132500Y80000D03*
X142500D03*
Y120000D03*
Y110000D03*
X329941Y61909D03*
G54D13*
G01X0Y0D02*
Y196850D01*
X275591D01*
Y0D01*
X0D01*
G01X285000Y-591D02*
Y150000D01*
X780902D01*
Y-591D01*
X285000D01*
G01Y24409D02*
X780902D01*
G01X285000Y49409D02*
X780902D01*
G01X296000Y80661D02*
Y93161D01*
X301890D01*
G01X299720Y87118D02*
X296000D01*
G01X309484Y93161D02*
X313201D01*
G01X311343D02*
Y80661D01*
G01X309484D02*
X313201D01*
G01X324669Y86909D02*
X327772D01*
Y83161D01*
X326839Y81909D01*
X325756Y81079D01*
X324205Y80661D01*
X322654Y81079D01*
X321571Y81909D01*
X320642Y83161D01*
X320020Y84618D01*
X319709Y86287D01*
Y87744D01*
X320020Y88996D01*
X320642Y90453D01*
X321571Y91705D01*
X322500Y92535D01*
X323740Y93161D01*
X324827D01*
X326063Y92744D01*
X326996Y91909D01*
G01X332728Y93161D02*
Y84205D01*
X333346Y82327D01*
X334587Y81079D01*
X336138Y80661D01*
X337689Y81079D01*
X338929Y82327D01*
X339547Y84205D01*
Y93161D01*
G01X345437Y80661D02*
Y93161D01*
X349311D01*
X350551Y92535D01*
X351327Y91705D01*
X351634Y90035D01*
X351327Y88370D01*
X350394Y87327D01*
X349311Y86705D01*
X345437D01*
G01X349311D02*
X351634Y80661D01*
G01X364031D02*
X357835D01*
Y93161D01*
X364031D01*
G01X361551Y87118D02*
X357835D01*
G01X285000Y99409D02*
X780902D01*
G01X285000Y74409D02*
X780902D01*
G01X285000Y124409D02*
X780902D01*
G01X361709Y105661D02*
X365583Y118161D01*
X369457Y105661D01*
G01X368063Y110035D02*
X363102D01*
G01X374882Y118161D02*
Y105661D01*
X381079D01*
G01X387280Y118161D02*
Y105661D01*
X393476D01*
G01X411764Y118161D02*
Y109205D01*
X412382Y107327D01*
X413622Y106079D01*
X415173Y105661D01*
X416724Y106079D01*
X417965Y107327D01*
X418583Y109205D01*
Y118161D01*
G01X424008Y105661D02*
Y118161D01*
X431134Y105661D01*
Y118161D01*
G01X438110D02*
X441827D01*
G01X439969D02*
Y105661D01*
G01X438110D02*
X441827D01*
G01X452366Y118161D02*
Y105661D01*
G01X448803Y118161D02*
X455929D01*
G01X461508Y107327D02*
X462748Y106287D01*
X464146Y105661D01*
X465382D01*
X466622Y106287D01*
X467555Y107327D01*
X468020Y108787D01*
X467709Y110244D01*
X466933Y111496D01*
X465539Y112327D01*
X463677Y112744D01*
X462594Y113579D01*
X462130Y115035D01*
X462441Y116496D01*
X463213Y117535D01*
X464299Y118161D01*
X465382D01*
X466469Y117744D01*
X467398Y116705D01*
G01X485685Y105661D02*
X489559Y118161D01*
X493433Y105661D01*
G01X492039Y110035D02*
X487079D01*
G01X498858Y105661D02*
Y118161D01*
X502732D01*
X503972Y117535D01*
X504748Y116705D01*
X505055Y115035D01*
X504748Y113370D01*
X503815Y112327D01*
X502732Y111705D01*
X498858D01*
G01X502732D02*
X505055Y105661D01*
G01X517453D02*
X511256D01*
Y118161D01*
X517453D01*
G01X514972Y112118D02*
X511256D01*
G01X537291Y118161D02*
X541008D01*
G01X539150D02*
Y105661D01*
G01X537291D02*
X541008D01*
G01X547984D02*
Y118161D01*
X555110Y105661D01*
Y118161D01*
G01X572311Y105661D02*
Y118161D01*
X576343Y107744D01*
X580374Y118161D01*
Y105661D01*
G01X586882Y118161D02*
X590598D01*
G01X588740D02*
Y105661D01*
G01X586882D02*
X590598D01*
G01X598039Y118161D02*
Y105661D01*
X604236D01*
G01X610437Y118161D02*
Y105661D01*
X616634D01*
G01X624075Y118161D02*
X627791D01*
G01X625933D02*
Y105661D01*
G01X624075D02*
X627791D01*
G01X634299D02*
Y118161D01*
X638331Y107744D01*
X642362Y118161D01*
Y105661D01*
G01X653827D02*
X647630D01*
Y118161D01*
X653827D01*
G01X651346Y112118D02*
X647630D01*
G01X663126Y118161D02*
Y105661D01*
G01X659563Y118161D02*
X666689D01*
G01X678622Y105661D02*
X672425D01*
Y118161D01*
X678622D01*
G01X676142Y112118D02*
X672425D01*
G01X684823Y105661D02*
Y118161D01*
X688697D01*
X689937Y117535D01*
X690713Y116705D01*
X691020Y115035D01*
X690713Y113370D01*
X689780Y112327D01*
X688697Y111705D01*
X684823D01*
G01X688697D02*
X691020Y105661D01*
G01X697063Y107327D02*
X698303Y106287D01*
X699701Y105661D01*
X700937D01*
X702177Y106287D01*
X703110Y107327D01*
X703575Y108787D01*
X703264Y110244D01*
X702488Y111496D01*
X701094Y112327D01*
X699232Y112744D01*
X698150Y113579D01*
X697685Y115035D01*
X697996Y116496D01*
X698768Y117535D01*
X699854Y118161D01*
X700937D01*
X702024Y117744D01*
X702953Y116705D01*
G01X374882Y99409D02*
Y-591D01*
G01X398283Y80661D02*
Y93161D01*
X404173D01*
G01X402004Y87118D02*
X398283D01*
G01X411768Y93161D02*
X415484D01*
G01X413626D02*
Y80661D01*
G01X411768D02*
X415484D01*
G01X422461D02*
Y93161D01*
X429587Y80661D01*
Y93161D01*
G01X436563D02*
X440280D01*
G01X438421D02*
Y80661D01*
G01X436563D02*
X440280D01*
G01X447563Y82327D02*
X448803Y81287D01*
X450201Y80661D01*
X451437D01*
X452677Y81287D01*
X453610Y82327D01*
X454075Y83787D01*
X453764Y85244D01*
X452988Y86496D01*
X451594Y87327D01*
X449732Y87744D01*
X448650Y88579D01*
X448185Y90035D01*
X448496Y91496D01*
X449268Y92535D01*
X450354Y93161D01*
X451437D01*
X452524Y92744D01*
X453453Y91705D01*
G01X459961Y80661D02*
Y93161D01*
G01X466472D02*
Y80661D01*
G01Y86909D02*
X459961D01*
G01X478713Y80661D02*
X472516D01*
Y93161D01*
X478713D01*
G01X476232Y87118D02*
X472516D01*
G01X484602Y80661D02*
Y93161D01*
X487701D01*
X488941Y92535D01*
X489870Y91705D01*
X490646Y90453D01*
X491268Y88996D01*
X491421Y86909D01*
X491268Y84827D01*
X490646Y83370D01*
X489870Y82118D01*
X488941Y81287D01*
X487701Y80661D01*
X484602D01*
G01X495760Y76496D02*
X505059D01*
G01X509551Y82327D02*
X510791Y81287D01*
X512189Y80661D01*
X513425D01*
X514665Y81287D01*
X515598Y82327D01*
X516063Y83787D01*
X515752Y85244D01*
X514976Y86496D01*
X513583Y87327D01*
X511720Y87744D01*
X510638Y88579D01*
X510173Y90035D01*
X510484Y91496D01*
X511256Y92535D01*
X512343Y93161D01*
X513425D01*
X514512Y92744D01*
X515441Y91705D01*
G01X523346Y93161D02*
X527063D01*
G01X525205D02*
Y80661D01*
G01X523346D02*
X527063D01*
G01X534657Y93161D02*
X540547D01*
X534657Y80661D01*
X540547D01*
G01X553098D02*
X546902D01*
Y93161D01*
X553098D01*
G01X550618Y87118D02*
X546902D01*
G01X374571Y131252D02*
Y143752D01*
X377669D01*
X378909Y143126D01*
X379839Y142295D01*
X380614Y141043D01*
X381236Y139587D01*
X381390Y137500D01*
X381236Y135417D01*
X380614Y133961D01*
X379839Y132709D01*
X378909Y131878D01*
X377669Y131252D01*
X374571D01*
G01X387280D02*
Y143752D01*
X391154D01*
X392394Y143126D01*
X393169Y142295D01*
X393476Y140626D01*
X393169Y138961D01*
X392236Y137917D01*
X391154Y137295D01*
X387280D01*
G01X391154D02*
X393476Y131252D01*
G01X400917Y143752D02*
X404634D01*
G01X402776D02*
Y131252D01*
G01X400917D02*
X404634D01*
G01X412075Y143752D02*
Y131252D01*
X418272D01*
G01X424472Y143752D02*
Y131252D01*
X430669D01*
G01X455776Y142709D02*
X454846Y143335D01*
X453760Y143752D01*
X452520D01*
X451126Y143126D01*
X450043Y142087D01*
X449268Y140835D01*
X448646Y138752D01*
X448492Y136878D01*
X448803Y135000D01*
X449268Y133752D01*
X450197Y132500D01*
X451280Y131669D01*
X452366Y131252D01*
X453453D01*
X454535Y131669D01*
X455465Y132295D01*
X456240Y133126D01*
G01X461508Y131252D02*
Y143752D01*
G01X468020D02*
Y131252D01*
G01Y137500D02*
X461508D01*
G01X473287Y131252D02*
X477161Y143752D01*
X481035Y131252D01*
G01X479642Y135626D02*
X474681D01*
G01X486461Y131252D02*
Y143752D01*
X490335D01*
X491575Y143126D01*
X492350Y142295D01*
X492657Y140626D01*
X492350Y138961D01*
X491417Y137917D01*
X490335Y137295D01*
X486461D01*
G01X490335D02*
X492657Y131252D01*
G01X501957Y143752D02*
Y131252D01*
G01X498394Y143752D02*
X505520D01*
G01X514354Y130835D02*
X514043Y131043D01*
Y131461D01*
X514354Y131669D01*
X514665Y131461D01*
Y131043D01*
X514354Y130835D01*
G01Y136461D02*
X514043Y136669D01*
Y137087D01*
X514354Y137295D01*
X514665Y137087D01*
Y136669D01*
X514354Y136461D01*
G01X539150Y143752D02*
Y131252D01*
G01X535587Y143752D02*
X542713D01*
G01X551547Y131252D02*
X550307Y131461D01*
X549224Y132295D01*
X548291Y133543D01*
X547673Y135000D01*
X547362Y136669D01*
Y138335D01*
X547673Y140004D01*
X548291Y141461D01*
X549224Y142709D01*
X550307Y143543D01*
X551547Y143752D01*
X552787Y143543D01*
X553870Y142709D01*
X554803Y141461D01*
X555421Y140004D01*
X555732Y138335D01*
Y136669D01*
X555421Y135000D01*
X554803Y133543D01*
X553870Y132295D01*
X552787Y131461D01*
X551547Y131252D01*
G01X560846D02*
Y143752D01*
X564563D01*
X565803Y143126D01*
X566736Y141669D01*
X567043Y140004D01*
X566736Y138335D01*
X565961Y137087D01*
X564563Y136461D01*
X560846D01*
G01X588740Y143752D02*
Y131252D01*
G01X586571Y139587D02*
X590909D01*
G01X601138Y131252D02*
X600209Y131461D01*
X599280Y132295D01*
X598657Y133752D01*
X598346Y135417D01*
X598657Y137087D01*
X599280Y138543D01*
X600209Y139378D01*
X601138Y139587D01*
X602067Y139378D01*
X602996Y138543D01*
X603618Y137087D01*
X603772Y135417D01*
X603618Y133752D01*
X602996Y132295D01*
X602067Y131461D01*
X601138Y131252D01*
G01X627173Y137917D02*
X627791Y138543D01*
X628256Y139587D01*
X628567Y141043D01*
X628256Y142295D01*
X627638Y143126D01*
X626551Y143752D01*
X622370D01*
Y131252D01*
X627484D01*
X628567Y132087D01*
X629189Y133335D01*
X629496Y134795D01*
X629189Y136252D01*
X628256Y137500D01*
X627173Y137917D01*
X622370D01*
G01X638331Y131252D02*
X637091Y131461D01*
X636008Y132295D01*
X635075Y133543D01*
X634457Y135000D01*
X634146Y136669D01*
Y138335D01*
X634457Y140004D01*
X635075Y141461D01*
X636008Y142709D01*
X637091Y143543D01*
X638331Y143752D01*
X639571Y143543D01*
X640654Y142709D01*
X641587Y141461D01*
X642205Y140004D01*
X642516Y138335D01*
Y136669D01*
X642205Y135000D01*
X641587Y133543D01*
X640654Y132295D01*
X639571Y131461D01*
X638331Y131252D01*
G01X650728Y143752D02*
Y131252D01*
G01X647165Y143752D02*
X654291D01*
G01X663126D02*
Y131252D01*
G01X659563Y143752D02*
X666689D01*
G01X675524Y131252D02*
X674283Y131461D01*
X673201Y132295D01*
X672268Y133543D01*
X671650Y135000D01*
X671339Y136669D01*
Y138335D01*
X671650Y140004D01*
X672268Y141461D01*
X673201Y142709D01*
X674283Y143543D01*
X675524Y143752D01*
X676764Y143543D01*
X677846Y142709D01*
X678780Y141461D01*
X679398Y140004D01*
X679709Y138335D01*
Y136669D01*
X679398Y135000D01*
X678780Y133543D01*
X677846Y132295D01*
X676764Y131461D01*
X675524Y131252D01*
G01X683890D02*
Y143752D01*
X687921Y133335D01*
X691953Y143752D01*
Y131252D01*
G01X447409Y8157D02*
X448339Y6701D01*
X449579Y5866D01*
X450972Y5657D01*
X452213Y5866D01*
X453453Y6906D01*
X454228Y8157D01*
X454382Y9406D01*
X454075Y10866D01*
X452988Y11906D01*
X451906Y12323D01*
X450508D01*
G01X451906D02*
X452835Y12949D01*
X453610Y13992D01*
X453917Y15240D01*
X453610Y16492D01*
X452835Y17531D01*
X451437Y18157D01*
X450043Y17949D01*
X448650Y17114D01*
G01X463217Y5240D02*
X462906Y5449D01*
Y5866D01*
X463217Y6075D01*
X463528Y5866D01*
Y5449D01*
X463217Y5240D01*
G01X475614Y5657D02*
Y18157D01*
X473756Y15657D01*
G01Y5657D02*
X477472D01*
G01X487701D02*
X488012Y8366D01*
X488476Y10657D01*
X489098Y12740D01*
X489870Y15031D01*
X491110Y18157D01*
X484913D01*
G01X497000Y7531D02*
X497929Y6492D01*
X499016Y5866D01*
X500409Y5657D01*
X501803Y6075D01*
X502890Y6906D01*
X503665Y8366D01*
X503819Y10031D01*
X503508Y11701D01*
X502732Y12740D01*
X501650Y13575D01*
X500563Y13783D01*
X499480Y13575D01*
X498087Y12740D01*
X498551Y18157D01*
X502732D01*
G01X450819Y30661D02*
Y43161D01*
X448961Y40661D01*
G01Y30661D02*
X452677D01*
G01X463217Y30244D02*
X462906Y30453D01*
Y30870D01*
X463217Y31079D01*
X463528Y30870D01*
Y30453D01*
X463217Y30244D01*
G01X475614Y43161D02*
X474374Y42744D01*
X473445Y41705D01*
X472823Y40453D01*
X472358Y38787D01*
X472205Y36909D01*
X472358Y35035D01*
X472823Y33370D01*
X473445Y32118D01*
X474374Y31079D01*
X475614Y30661D01*
X476854Y31079D01*
X477783Y32118D01*
X478406Y33370D01*
X478870Y35035D01*
X479024Y36909D01*
X478870Y38787D01*
X478406Y40453D01*
X477783Y41705D01*
X476854Y42744D01*
X475614Y43161D01*
G01X485067Y35870D02*
X486154Y37327D01*
X487083Y38161D01*
X488323Y38579D01*
X489406Y38161D01*
X490181Y37327D01*
X490803Y36079D01*
X490957Y34618D01*
X490803Y33370D01*
X490181Y32118D01*
X489252Y31079D01*
X488165Y30661D01*
X486925Y31079D01*
X485843Y32327D01*
X485220Y34205D01*
X485067Y36287D01*
X485378Y38996D01*
X485843Y40453D01*
X486618Y41909D01*
X487701Y42953D01*
X488787Y43161D01*
X489870Y42744D01*
X490646Y41705D01*
G01X500098Y30661D02*
X500409Y33370D01*
X500874Y35661D01*
X501496Y37744D01*
X502268Y40035D01*
X503508Y43161D01*
X497311D01*
G01X450819Y68157D02*
X449579Y67740D01*
X448650Y66701D01*
X448028Y65449D01*
X447563Y63783D01*
X447409Y61906D01*
X447563Y60031D01*
X448028Y58366D01*
X448650Y57114D01*
X449579Y56075D01*
X450819Y55657D01*
X452059Y56075D01*
X452988Y57114D01*
X453610Y58366D01*
X454075Y60031D01*
X454228Y61906D01*
X454075Y63783D01*
X453610Y65449D01*
X452988Y66701D01*
X452059Y67740D01*
X450819Y68157D01*
G01X463217Y55240D02*
X462906Y55449D01*
Y55866D01*
X463217Y56075D01*
X463528Y55866D01*
Y55449D01*
X463217Y55240D01*
G01X472980Y57114D02*
X474063Y56075D01*
X475303Y55657D01*
X476543Y56075D01*
X477630Y57323D01*
X478406Y59201D01*
X478713Y61075D01*
Y63366D01*
X478406Y65240D01*
X477630Y66906D01*
X476701Y67740D01*
X475614Y68157D01*
X474374Y67740D01*
X473445Y66906D01*
X472823Y65657D01*
X472516Y63992D01*
X472823Y62531D01*
X473598Y61075D01*
X474528Y60240D01*
X475614Y60031D01*
X476854Y60449D01*
X477783Y61492D01*
X478713Y63366D01*
G01X488012Y55657D02*
Y68157D01*
X486154Y65657D01*
G01Y55657D02*
X489870D01*
G01X502268D02*
Y68157D01*
X496535Y59201D01*
X504283D01*
G01X580524Y5657D02*
Y18157D01*
X587650Y5657D01*
Y18157D01*
G01X596484Y5657D02*
X595244Y5866D01*
X594161Y6701D01*
X593228Y7949D01*
X592610Y9406D01*
X592299Y11075D01*
Y12740D01*
X592610Y14409D01*
X593228Y15866D01*
X594161Y17114D01*
X595244Y17949D01*
X596484Y18157D01*
X597724Y17949D01*
X598807Y17114D01*
X599740Y15866D01*
X600358Y14409D01*
X600669Y12740D01*
Y11075D01*
X600358Y9406D01*
X599740Y7949D01*
X598807Y6701D01*
X597724Y5866D01*
X596484Y5657D01*
G01X605319D02*
Y18157D01*
X612445Y5657D01*
Y18157D01*
G01X619264Y9823D02*
X623295D01*
G01X630579Y5657D02*
Y18157D01*
X634295D01*
X635535Y17531D01*
X636469Y16075D01*
X636776Y14409D01*
X636469Y12740D01*
X635693Y11492D01*
X634295Y10866D01*
X630579D01*
G01X642976Y18157D02*
Y5657D01*
X649173D01*
G01X654598D02*
X658472Y18157D01*
X662346Y5657D01*
G01X660953Y10031D02*
X655992D01*
G01X670870Y18157D02*
Y5657D01*
G01X667307Y18157D02*
X674433D01*
G01X686366Y5657D02*
X680169D01*
Y18157D01*
X686366D01*
G01X683886Y12114D02*
X680169D01*
G01X692256Y5657D02*
Y18157D01*
X695354D01*
X696594Y17531D01*
X697524Y16701D01*
X698299Y15449D01*
X698921Y13992D01*
X699075Y11906D01*
X698921Y9823D01*
X698299Y8366D01*
X697524Y7114D01*
X696594Y6283D01*
X695354Y5657D01*
X692256D01*
G01X576343Y99409D02*
Y-591D01*
G01X605783Y30661D02*
Y43161D01*
X609500D01*
X610740Y42535D01*
X611673Y41079D01*
X611980Y39413D01*
X611673Y37744D01*
X610898Y36496D01*
X609500Y35870D01*
X605783D01*
G01X618181Y43161D02*
Y30661D01*
X624378D01*
G01X629803D02*
X633677Y43161D01*
X637551Y30661D01*
G01X636157Y35035D02*
X631197D01*
G01X646075Y43161D02*
Y30661D01*
G01X642512Y43161D02*
X649638D01*
G01X661571Y30661D02*
X655374D01*
Y43161D01*
X661571D01*
G01X659091Y37118D02*
X655374D01*
G01X667461Y30661D02*
Y43161D01*
X670559D01*
X671799Y42535D01*
X672728Y41705D01*
X673504Y40453D01*
X674126Y38996D01*
X674280Y36909D01*
X674126Y34827D01*
X673504Y33370D01*
X672728Y32118D01*
X671799Y31287D01*
X670559Y30661D01*
X667461D01*
G01X605783Y55657D02*
Y68157D01*
X609500D01*
X610740Y67531D01*
X611673Y66075D01*
X611980Y64409D01*
X611673Y62740D01*
X610898Y61492D01*
X609500Y60866D01*
X605783D01*
G01X618181Y68157D02*
Y55657D01*
X624378D01*
G01X629803D02*
X633677Y68157D01*
X637551Y55657D01*
G01X636157Y60031D02*
X631197D01*
G01X646075Y68157D02*
Y55657D01*
G01X642512Y68157D02*
X649638D01*
G01X661571Y55657D02*
X655374D01*
Y68157D01*
X661571D01*
G01X659091Y62114D02*
X655374D01*
G01X667461Y55657D02*
Y68157D01*
X670559D01*
X671799Y67531D01*
X672728Y66701D01*
X673504Y65449D01*
X674126Y63992D01*
X674280Y61906D01*
X674126Y59823D01*
X673504Y58366D01*
X672728Y57114D01*
X671799Y56283D01*
X670559Y55657D01*
X667461D01*
G01X605783Y80661D02*
Y93161D01*
X609500D01*
X610740Y92535D01*
X611673Y91079D01*
X611980Y89413D01*
X611673Y87744D01*
X610898Y86496D01*
X609500Y85870D01*
X605783D01*
G01X618181Y93161D02*
Y80661D01*
X624378D01*
G01X629803D02*
X633677Y93161D01*
X637551Y80661D01*
G01X636157Y85035D02*
X631197D01*
G01X646075Y93161D02*
Y80661D01*
G01X642512Y93161D02*
X649638D01*
G01X661571Y80661D02*
X655374D01*
Y93161D01*
X661571D01*
G01X659091Y87118D02*
X655374D01*
G01X667461Y80661D02*
Y93161D01*
X670559D01*
X671799Y92535D01*
X672728Y91705D01*
X673504Y90453D01*
X674126Y88996D01*
X674280Y86909D01*
X674126Y84827D01*
X673504Y83370D01*
X672728Y82118D01*
X671799Y81287D01*
X670559Y80661D01*
X667461D01*
G01X703417Y99409D02*
Y-591D01*
G01X729760Y80661D02*
X728520Y80870D01*
X727437Y81705D01*
X726504Y82953D01*
X725886Y84409D01*
X725575Y86079D01*
Y87744D01*
X725886Y89413D01*
X726504Y90870D01*
X727437Y92118D01*
X728520Y92953D01*
X729760Y93161D01*
X731000Y92953D01*
X732083Y92118D01*
X733016Y90870D01*
X733634Y89413D01*
X733945Y87744D01*
Y86079D01*
X733634Y84409D01*
X733016Y82953D01*
X732083Y81705D01*
X731000Y80870D01*
X729760Y80661D01*
G01X731000Y83996D02*
X732858Y80661D01*
G01X742157Y93161D02*
Y80661D01*
G01X738594Y93161D02*
X745720D01*
G01X754555Y80661D02*
Y86287D01*
X751457Y93161D01*
G01X757654D02*
X754555Y86287D01*
G01X744016Y5657D02*
Y18157D01*
X738283Y9201D01*
X746031D01*
G01X744016Y30661D02*
Y43161D01*
X738283Y34205D01*
X746031D01*
G01X744016Y55657D02*
Y68157D01*
X738283Y59201D01*
X746031D01*
M02*
