G04 ================== begin FILE IDENTIFICATION RECORD ==================*
G04 Layout Name:  C:/Users/user/Desktop/EXEX/allegro/BVNCB.brd*
G04 Film Name:    TOP*
G04 File Format:  Gerber RS274X*
G04 File Origin:  Cadence Allegro 17.2-S038*
G04 Origin Date:  Thu Jul 11 11:35:49 2019*
G04 *
G04 Layer:  ETCH/TOP*
G04 Layer:  PIN/TOP*
G04 Layer:  VIA CLASS/TOP*
G04 *
G04 Offset:    (0.000 0.000)*
G04 Mirror:    No*
G04 Mode:      Positive*
G04 Rotation:  0*
G04 FullContactRelief:  No*
G04 UndefLineWidth:     0.000*
G04 ================== end FILE IDENTIFICATION RECORD ====================*
%FSLAX25Y25*MOIN*%
%IR0*IPPOS*OFA0.00000B0.00000*MIA0B0*SFA1.00000B1.00000*%
%ADD13C,.06*%
%ADD11C,.065*%
%ADD12R,.05X.062992*%
%ADD10C,.025*%
%ADD14C,.01*%
%ADD15C,.012126*%
%ADD17C,.075197*%
%ADD16R,.200157X.200157*%
G75*
%LPD*%
G75*
G36*
G01X262508Y185039D02*
X263780D01*
Y11811D01*
X11811D01*
Y185039D01*
X12492D01*
Y164992D01*
X32508D01*
Y185039D01*
X242492D01*
Y164992D01*
X262508D01*
Y185039D01*
G37*
%LPC*%
G75*
G36*
G01X138787Y121508D02*
G02X146213I3713J-1508D01*
G01X196016D01*
G02Y118492I3984J-1508D01*
G01X146213D01*
G02X138787I-3713J1508D01*
G01X105008D01*
Y116850D01*
G02X104000Y115843I-1008J0D01*
G01X99000D01*
G02X97992Y116850I0J1008D01*
G01Y123150D01*
G02X99000Y124157I1008J0D01*
G01X104000D01*
G02X105008Y123150I0J-1008D01*
G01Y121508D01*
X138787D01*
G37*
G36*
G01X84992Y118492D02*
X63984D01*
G02Y121508I-3984J1508D01*
G01X84992D01*
Y123150D01*
G02X86000Y124157I1008J0D01*
G01X91000D01*
G02X92008Y123150I0J-1008D01*
G01Y116850D01*
G02X91000Y115843I-1008J0D01*
G01X86000D01*
G02X84992Y116850I0J1008D01*
G01Y118492D01*
G37*
G36*
G01X140673Y83803D02*
Y106197D01*
G02X144327I1827J3803D01*
G01Y83803D01*
G02X146303Y81827I-1827J-3803D01*
G01X195917D01*
G02Y78173I4083J-1827D01*
G01X146303D01*
G02X140673Y83803I-3803J1827D01*
G37*
G36*
G01X28280Y46996D02*
Y98504D01*
X35496Y105720D01*
X80504D01*
X95720Y90504D01*
Y81827D01*
X128697D01*
G02Y78173I3803J-1827D01*
G01X95720D01*
Y31280D01*
X43996D01*
X28280Y46996D01*
G37*
G54D16*
X252500Y22500D03*
X22500D03*
%LPD*%
G75*
G36*
G01X29500Y98000D02*
X36000Y104500D01*
X80000D01*
X94500Y90000D01*
Y32500D01*
X44500D01*
X29500Y47500D01*
Y98000D01*
G37*
%LPC*%
G75*
G54D17*
X60000Y80000D03*
%LPD*%
G75*
G54D10*
X22500Y22500D03*
Y175000D03*
X252500Y22500D03*
Y175000D03*
G54D11*
X60000Y80000D03*
Y120000D03*
X200000Y80000D03*
Y120000D03*
G54D12*
X101500D03*
X88500D03*
G54D13*
X132500Y80000D03*
X142500D03*
Y120000D03*
Y110000D03*
G54D14*
G01X60000Y120000D02*
X88500D01*
G01X101500D02*
X142500D01*
G01D02*
X200000D01*
G54D15*
G01X60000Y76039D02*
Y80000D01*
G01X132500D02*
X60000D01*
G01D02*
Y83961D01*
G01X56039Y80000D02*
X60000D01*
G01X142500Y110000D02*
Y80000D01*
G01D02*
X200000D01*
M02*
